<svg xmlns="http://www.w3.org/2000/svg" xmlns:xlink="http://www.w3.org/1999/xlink" width="1030" height="581.04"><rect width="1030" height="581.04" rx="5" ry="5" class="a"/><svg y="0%" x="0%"><circle cx="20" cy="20" r="6" fill="#ff5f58"/><circle cx="40" cy="20" r="6" fill="#ffbd2e"/><circle cx="60" cy="20" r="6" fill="#18c132"/></svg><svg height="521.04" viewBox="0 0 99 52.104" width="990" x="15" xmlns="http://www.w3.org/2000/svg" xmlns:xlink="http://www.w3.org/1999/xlink" y="50"><style>@keyframes p{0%{transform:translateX(0)}.3%{transform:translateX(-99px)}.4%{transform:translateX(-396px)}.5%{transform:translateX(-693px)}9%{transform:translateX(-792px)}9.2%{transform:translateX(-891px)}16.5%{transform:translateX(-990px)}16.6%{transform:translateX(-1188px)}17.9%{transform:translateX(-1287px)}21.2%{transform:translateX(-1485px)}40.7%{transform:translateX(-2574px)}44%{transform:translateX(-2772px)}62.2%{transform:translateX(-2871px)}67.8%{transform:translateX(-3069px)}83.9%{transform:translateX(-3168px)}84.5%{transform:translateX(-3366px)}84.6%{transform:translateX(-3564px)}to{transform:translateX(-3762px)}}.a{fill:#282d35}.f,.g,.h{fill:#a8cc8c;white-space:pre}.g,.h{fill:#b9c0cb}.h{fill:#73bef3}.j{fill:#b9c0cb;font-weight:700}.j,.l,.m,.r,.s{white-space:pre}.l{fill:#a8cc8c;font-weight:700}.m,.r,.s{fill:#d290e4}.r,.s{fill:#e88388}.s{fill:#6f7783}</style><g font-family="Monaco,Consolas,Menlo,'Bitstream Vera Sans Mono','Powerline Symbols',monospace" font-size="1.67"><defs><symbol id="1"><text y="1.67" class="f">ekickx</text><text x="6.012" y="1.67" class="g">@toolbox</text><text x="15.03" y="1.67" class="f">~</text><text x="16.032" y="1.67" class="g">&gt;</text></symbol><symbol id="2"><text y="1.67" class="f">ekickx</text><text x="6.012" y="1.67" class="g">@toolbox</text><text x="15.03" y="1.67" class="f">~</text><text x="16.032" y="1.67" class="g">&gt;</text><text x="18.036" y="1.67" class="f">curl</text><text x="23.046" y="1.67" class="h">-sfLS</text><text x="29.058" y="1.67" class="h">https://install-nvim-pm.vercel.app</text><text x="64.128" y="1.67" style="white-space:pre" fill="#d290e3">|</text><text x="66.132" y="1.67" class="f">bash</text><text x="71.142" y="1.67" class="h">-s</text><text x="74.148" y="1.67" class="h">--</text><text x="77.154" y="1.67" class="h">paq</text></symbol><symbol id="3"><text y="1.67" class="g">&gt;</text><text x="2.004" y="1.67" class="j">From</text><text x="7.014" y="1.67" class="j">:</text><text x="9.018" y="1.67" style="white-space:pre" fill="#71bef2" text-decoration="underline">https://github.com/savq/paq-nvim</text></symbol><symbol id="4"><text y="1.67" class="g">&gt;</text><text x="2.004" y="1.67" class="j">To</text><text x="7.014" y="1.67" class="j">:</text><text x="9.018" y="1.67" class="f">/var/home/ekickx/.local/share/nvim/site/pack/</text><text x="54.108" y="1.67" class="l">paqs/opt/paq-nvim</text></symbol><symbol id="5"><text y="1.67" class="m">?</text><text x="2.004" y="1.67" class="g">Confirm</text><text x="10.02" y="1.67" class="g">installation?</text><text x="24.048" y="1.67" class="g">[</text><text x="25.05" y="1.67" class="l">y/n</text><text x="28.056" y="1.67" class="g">]y</text></symbol><symbol id="6"><text y="1.67" class="g">&gt;</text><text x="2.004" y="1.67" class="g">Installing</text><text x="13.026" y="1.67" class="f">paq</text><text x="16.032" y="1.67" class="g">...</text></symbol><symbol id="7"><text y="1.67" class="f">✓</text><text x="2.004" y="1.67" class="g">Successfully</text><text x="15.03" y="1.67" class="g">installed</text><text x="25.05" y="1.67" class="f">paq</text><text x="29.058" y="1.67" class="g">to</text><text x="32.064" y="1.67" class="f">/var/home/ekickx/.local/share/nvim/site/pack/</text><text x="77.154" y="1.67" class="l">paqs/opt/paq-nvim</text></symbol><symbol id="a"><path fill="transparent" d="M0 0h99v24H0z"/></symbol><symbol id="b"><path fill="#6f7683" d="M0 0h1.102v2.171H0z"/></symbol></defs><path class="a" d="M0 0h99v52.104H0z"/><g style="animation-duration:11.366213s;animation-iteration-count:infinite;animation-name:p;animation-timing-function:steps(1,end)"><svg width="3861"><svg><use xlink:href="#a"/><use xlink:href="#b" x="-.004"/></svg><svg x="99"><use xlink:href="#a"/><use xlink:href="#b" x="-.004"/></svg><svg x="198"><use xlink:href="#a"/><use xlink:href="#b" x="-.004"/></svg><svg x="297"><use xlink:href="#a"/><use xlink:href="#b" x="-.004"/></svg><svg x="396"><use xlink:href="#a"/><use xlink:href="#b" x="-.004"/></svg><svg x="495"><use xlink:href="#a"/><use xlink:href="#b" x="-.004"/></svg><svg x="594"><use xlink:href="#a"/><use xlink:href="#b" x="-.004"/></svg><svg x="693"><use xlink:href="#a"/><use xlink:href="#b" x="17.996"/><use xlink:href="#1"/></svg><svg x="792"><use xlink:href="#a"/><use xlink:href="#b" x="-.004"/></svg><svg x="891"><use xlink:href="#a"/><use xlink:href="#b" x="17.996"/><use xlink:href="#1"/></svg><svg x="990"><use xlink:href="#a"/><use xlink:href="#b" x="18.996"/><text y="1.67" class="f">ekickx</text><text x="6.012" y="1.67" class="g">@toolbox</text><text x="15.03" y="1.67" class="f">~</text><text x="16.032" y="1.67" class="g">&gt;</text><text x="18.036" y="1.67" class="g">c</text></svg><svg x="1089"><use xlink:href="#a"/><use xlink:href="#b" x="18.996"/><text y="1.67" class="f">ekickx</text><text x="6.012" y="1.67" class="g">@toolbox</text><text x="15.03" y="1.67" class="f">~</text><text x="16.032" y="1.67" class="g">&gt;</text><text x="18.036" y="1.67" class="r">c</text></svg><svg x="1188"><use xlink:href="#a"/><use xlink:href="#b" x="18.996"/><text y="1.67" class="f">ekickx</text><text x="6.012" y="1.67" class="g">@toolbox</text><text x="15.03" y="1.67" class="f">~</text><text x="16.032" y="1.67" class="g">&gt;</text><text x="18.036" y="1.67" class="r">c</text><text x="19.038" y="1.67" class="s">url</text><text x="23.046" y="1.67" class="s">-sfLS</text><text x="29.058" y="1.67" class="s">https://install-nvim-pm.vercel.app</text><text x="64.128" y="1.67" class="s">|</text><text x="66.132" y="1.67" class="s">bash</text><text x="71.142" y="1.67" class="s">-s</text><text x="74.148" y="1.67" class="s">--</text><text x="77.154" y="1.67" class="s">paq</text></svg><svg x="1287"><use xlink:href="#a"/><use xlink:href="#b" x="19.996"/><text y="1.67" class="f">ekickx</text><text x="6.012" y="1.67" class="g">@toolbox</text><text x="15.03" y="1.67" class="f">~</text><text x="16.032" y="1.67" class="g">&gt;</text><text x="18.036" y="1.67" class="r">cu</text><text x="20.04" y="1.67" class="s">rl</text><text x="23.046" y="1.67" class="s">-sfLS</text><text x="29.058" y="1.67" class="s">https://install-nvim-pm.vercel.app</text><text x="64.128" y="1.67" class="s">|</text><text x="66.132" y="1.67" class="s">bash</text><text x="71.142" y="1.67" class="s">-s</text><text x="74.148" y="1.67" class="s">--</text><text x="77.154" y="1.67" class="s">paq</text></svg><svg x="1386"><use xlink:href="#a"/><use xlink:href="#b" x="79.996"/><text y="1.67" class="f">ekickx</text><text x="6.012" y="1.67" class="g">@toolbox</text><text x="15.03" y="1.67" class="f">~</text><text x="16.032" y="1.67" class="g">&gt;</text><text x="18.036" y="1.67" class="r">curl</text><text x="23.046" y="1.67" class="r">-sfLS</text><text x="29.058" y="1.67" class="r">https://install-nvim-pm.vercel.app</text><text x="64.128" y="1.67" class="r">|</text><text x="66.132" y="1.67" class="r">bash</text><text x="71.142" y="1.67" class="r">-s</text><text x="74.148" y="1.67" class="r">--</text><text x="77.154" y="1.67" class="r">paq</text></svg><svg x="1485"><use xlink:href="#a"/><use xlink:href="#b" x="79.996"/><use xlink:href="#2"/></svg><svg x="1584"><use xlink:href="#a"/><use xlink:href="#b" x="79.996"/><use xlink:href="#2"/></svg><svg x="1683"><use xlink:href="#a"/><use xlink:href="#b" x="-.004" y="2.146"/><use xlink:href="#2"/></svg><svg x="1782"><use xlink:href="#a"/><use xlink:href="#b" x="-.004" y="2.146"/><use xlink:href="#2"/></svg><svg x="1881"><use xlink:href="#a"/><use xlink:href="#b" x="-.004" y="2.146"/><use xlink:href="#2"/></svg><svg x="1980"><use xlink:href="#a"/><use xlink:href="#b" x="-.004" y="2.146"/><use xlink:href="#2"/></svg><svg x="2079"><use xlink:href="#a"/><use xlink:href="#b" x="-.004" y="2.146"/><use xlink:href="#2"/></svg><svg x="2178"><use xlink:href="#a"/><use xlink:href="#b" x="-.004" y="2.146"/><use xlink:href="#2"/></svg><svg x="2277"><use xlink:href="#a"/><use xlink:href="#b" x="-.004" y="2.146"/><use xlink:href="#2"/></svg><svg x="2376"><use xlink:href="#a"/><use xlink:href="#b" x="-.004" y="2.146"/><use xlink:href="#2"/></svg><svg x="2475"><use xlink:href="#a"/><use xlink:href="#b" x="-.004" y="2.146"/><use xlink:href="#2"/></svg><svg x="2574"><use xlink:href="#a"/><use xlink:href="#b" x="-.004" y="2.146"/><use xlink:href="#2"/></svg><svg x="2673"><use xlink:href="#a"/><use xlink:href="#b" x="-.004" y="4.317"/><use xlink:href="#2"/><use xlink:href="#3" y="2.171"/></svg><svg x="2772"><use xlink:href="#a"/><use xlink:href="#b" x="28.996" y="8.659"/><use xlink:href="#2"/><use xlink:href="#3" y="2.171"/><use xlink:href="#4" y="4.342"/><text y="10.354" class="m">?</text><text x="2.004" y="10.354" class="g">Confirm</text><text x="10.02" y="10.354" class="g">installation?</text><text x="24.048" y="10.354" class="g">[</text><text x="25.05" y="10.354" class="l">y/n</text><text x="28.056" y="10.354" class="g">]</text></svg><svg x="2871"><use xlink:href="#a"/><use xlink:href="#b" x="29.996" y="8.659"/><use xlink:href="#2"/><use xlink:href="#3" y="2.171"/><use xlink:href="#4" y="4.342"/><use xlink:href="#5" y="8.684"/></svg><svg x="2970"><use xlink:href="#a"/><use xlink:href="#b" x="-.004" y="10.83"/><use xlink:href="#2"/><use xlink:href="#3" y="2.171"/><use xlink:href="#4" y="4.342"/><use xlink:href="#5" y="8.684"/></svg><svg x="3069"><use xlink:href="#a"/><use xlink:href="#b" x="-.004" y="13.001"/><use xlink:href="#2"/><use xlink:href="#3" y="2.171"/><use xlink:href="#4" y="4.342"/><use xlink:href="#5" y="8.684"/><use xlink:href="#6" y="10.855"/></svg><svg x="3168"><use xlink:href="#a"/><use xlink:href="#b" x="-.004" y="15.172"/><use xlink:href="#2"/><use xlink:href="#3" y="2.171"/><use xlink:href="#4" y="4.342"/><use xlink:href="#5" y="8.684"/><use xlink:href="#6" y="10.855"/><use xlink:href="#7" y="13.026"/></svg><svg x="3267"><use xlink:href="#a"/><use xlink:href="#b" x="-.004" y="15.172"/><use xlink:href="#2"/><use xlink:href="#3" y="2.171"/><use xlink:href="#4" y="4.342"/><use xlink:href="#5" y="8.684"/><use xlink:href="#6" y="10.855"/><use xlink:href="#7" y="13.026"/></svg><svg x="3366"><use xlink:href="#a"/><use xlink:href="#b" x="-.004" y="15.172"/><use xlink:href="#2"/><use xlink:href="#3" y="2.171"/><use xlink:href="#4" y="4.342"/><use xlink:href="#5" y="8.684"/><use xlink:href="#6" y="10.855"/><use xlink:href="#7" y="13.026"/></svg><svg x="3465"><use xlink:href="#a"/><use xlink:href="#b" x="-.004" y="15.172"/><use xlink:href="#2"/><use xlink:href="#3" y="2.171"/><use xlink:href="#4" y="4.342"/><use xlink:href="#5" y="8.684"/><use xlink:href="#6" y="10.855"/><use xlink:href="#7" y="13.026"/></svg><svg x="3564"><use xlink:href="#a"/><use xlink:href="#b" x="17.996" y="15.172"/><use xlink:href="#2"/><use xlink:href="#3" y="2.171"/><use xlink:href="#4" y="4.342"/><use xlink:href="#5" y="8.684"/><use xlink:href="#6" y="10.855"/><use xlink:href="#7" y="13.026"/><use xlink:href="#1" y="15.197"/></svg><svg x="3663"><use xlink:href="#a"/><use xlink:href="#b" x="-.004" y="17.343"/><use xlink:href="#2"/><use xlink:href="#3" y="2.171"/><use xlink:href="#4" y="4.342"/><use xlink:href="#5" y="8.684"/><use xlink:href="#6" y="10.855"/><use xlink:href="#7" y="13.026"/><use xlink:href="#1" y="15.197"/></svg><svg x="3762"><use xlink:href="#a"/><use xlink:href="#b" x="-.004" y="17.343"/><use xlink:href="#2"/><use xlink:href="#3" y="2.171"/><use xlink:href="#4" y="4.342"/><use xlink:href="#5" y="8.684"/><use xlink:href="#6" y="10.855"/><use xlink:href="#7" y="13.026"/><use xlink:href="#1" y="15.197"/></svg></svg></g></g></svg></svg>